<svg width="96" height="96" viewBox="0 0 96 96" fill="none" xmlns="http://www.w3.org/2000/svg">
<rect width="96" height="96" rx="24" fill="url(#paint0_radial_12236_17834)"/>
<g clip-path="url(#clip0_12236_17834)">
<path d="M24 24H34.0001V37.9996H24V24Z" fill="#8BD500"/>
<path d="M24 42H34.0001V61.9996H24V42Z" fill="#076AAB"/>
<path d="M24 66H34.0001V71.9999H24V66Z" fill="#076AAB"/>
<path d="M38 24H48.0001V47.9997H38V24Z" fill="#8BD500"/>
<path d="M38 52H48.0001V71.9996H38V52Z" fill="#076AAB"/>
<path d="M52 24H61.9995V37.9996H52V24Z" fill="#076AAB"/>
<path d="M52 42H61.9995V61.9996H52V42Z" fill="#076AAB"/>
<path d="M66 24H71.9999V47.9997H66V24Z" fill="#076AAB"/>
</g>
<defs>
<radialGradient id="paint0_radial_12236_17834" cx="0" cy="0" r="1" gradientUnits="userSpaceOnUse" gradientTransform="translate(48 48) rotate(90) scale(48)">
<stop stop-color="white"/>
<stop offset="0.33" stop-color="#F4FBFF"/>
<stop offset="0.66" stop-color="#EDF8FF"/>
<stop offset="1" stop-color="#DEF2FF"/>
</radialGradient>
<clipPath id="clip0_12236_17834">
<rect width="48" height="48" fill="white" transform="translate(24 24)"/>
</clipPath>
</defs>
</svg>
