<svg width="96" height="96" viewBox="0 0 96 96" fill="none" xmlns="http://www.w3.org/2000/svg">
<rect width="96" height="96" rx="24" fill="url(#paint0_radial_12236_17653)"/>
<g clip-path="url(#clip0_12236_17653)">
<path d="M51.0742 58.1295C51.6273 57.5764 52.2648 57.1732 52.9492 56.9201C51.4398 54.9045 51.6836 51.8389 53.5117 50.0764L53.5586 50.0295C55.1148 48.4732 57.4117 48.0889 59.3242 48.8764C59.568 48.042 60.0273 47.2732 60.6555 46.6451L60.7023 46.5982C62.6711 44.5451 66.2242 44.5451 68.2023 46.5982L68.3336 46.7295L68.6055 46.4576C73.1242 41.9482 73.1242 34.617 68.6242 30.1076C64.1148 25.5982 56.7836 25.5982 52.2836 30.1076L49.593 32.7982L54.7023 37.767C56.9805 39.8764 57.0086 43.7764 54.768 45.9232C52.6398 48.1451 48.8055 48.1451 46.6773 45.9232L44.9055 44.1701C44.8492 44.1139 44.7555 44.1139 44.7086 44.1701L33.7586 55.1107C33.0648 55.7764 33.0648 56.9857 33.7586 57.6514C34.4617 58.3545 35.6055 58.3545 36.2992 57.6514C36.318 57.6326 39.4586 54.492 39.4586 54.492C40.0773 53.8732 41.0898 53.8732 41.7086 54.492C42.3273 55.1107 42.3273 56.1232 41.7086 56.742L38.7273 59.7232C37.9305 60.4826 37.9305 61.8607 38.7273 62.6201C39.4867 63.417 40.8648 63.417 41.6242 62.6201L44.5961 59.6482C45.2148 59.0295 46.2273 59.0295 46.8461 59.6482C47.4648 60.267 47.4648 61.2795 46.8461 61.8982L43.893 64.8514C43.0773 65.6482 43.068 66.9607 43.8742 67.767C44.6336 68.5639 46.0117 68.5639 46.7711 67.767L50.0992 64.4389C48.9836 62.442 49.3586 59.7607 51.0086 58.1576L51.0742 58.1295Z" fill="#076AAB"/>
<path d="M27.1871 30.4734C22.9402 34.7203 22.9309 41.6297 27.1684 45.8859L32.9809 51.3797L42.4496 41.9109C43.6871 40.6172 45.9184 40.6172 47.1559 41.9109L48.9184 43.6734C49.8652 44.6578 51.5621 44.6578 52.4996 43.6734C52.9871 43.1859 53.2496 42.5484 53.2402 41.8641C53.2309 41.1797 52.959 40.5422 52.4715 40.0641L42.6277 30.4922C38.3809 26.2266 31.4434 26.2172 27.1871 30.4734Z" fill="#8BD500"/>
<path d="M63.5434 60.1074L63.5902 60.0605C64.4059 59.273 64.4152 57.8574 63.5902 57.0699L60.6652 54.1449L58.809 52.2887C57.984 51.4637 56.6434 51.4637 55.8184 52.2887L55.7715 52.3355C54.9559 53.123 54.9465 54.5387 55.7715 55.3262L60.5527 60.1074C61.3777 60.9324 62.7184 60.9324 63.5434 60.1074Z" fill="#076AAB"/>
<path d="M68.8398 54.8111L68.8867 54.7643C69.7117 53.9393 69.7117 52.5986 68.8867 51.7736L65.9617 48.8486C65.1742 48.033 63.7586 48.0236 62.9711 48.8486L62.9242 48.8955C62.1086 49.683 62.1086 51.0986 62.9242 51.8861L65.8492 54.8111C66.6742 55.6361 68.0148 55.6361 68.8398 54.8111Z" fill="#076AAB"/>
<path d="M55.1809 65.3205C56.0059 66.1455 57.3465 66.1455 58.1715 65.3205L58.2184 65.2736C59.0434 64.4486 59.0434 63.108 58.2184 62.283L56.3246 60.3893C55.4996 59.5643 54.159 59.5643 53.334 60.3893L53.2871 60.4361C52.4715 61.2236 52.4621 62.6393 53.2871 63.4268L55.1809 65.3205Z" fill="#076AAB"/>
</g>
<defs>
<radialGradient id="paint0_radial_12236_17653" cx="0" cy="0" r="1" gradientUnits="userSpaceOnUse" gradientTransform="translate(48 48) rotate(90) scale(48)">
<stop stop-color="white"/>
<stop offset="0.33" stop-color="#F4FBFF"/>
<stop offset="0.66" stop-color="#EDF8FF"/>
<stop offset="1" stop-color="#DEF2FF"/>
</radialGradient>
<clipPath id="clip0_12236_17653">
<rect width="48" height="48" fill="white" transform="translate(24 23.5557)"/>
</clipPath>
</defs>
</svg>
